<svg width="60" height="60" viewBox="0 0 60 60" fill="none" xmlns="http://www.w3.org/2000/svg">
<circle cx="30" cy="30" r="30" fill="#F0F0F0"/>
<mask id="mask0_606_3059" style="mask-type:alpha" maskUnits="userSpaceOnUse" x="0" y="0" width="60" height="60">
<circle cx="30" cy="30" r="30" fill="white"/>
</mask>
<g mask="url(#mask0_606_3059)">
<rect x="31" y="18" width="30" height="5" fill="black"/>
<rect x="40" y="28" width="12" height="5" fill="black"/>
<path d="M39.6436 30.373C39.6436 35.377 38.2627 39.2324 35.501 41.9395C32.7529 44.6465 28.8838 46 23.8936 46H14.1934V16.0176H24.5703C29.3828 16.0176 33.0947 17.248 35.7061 19.709C38.3311 22.1699 39.6436 25.7246 39.6436 30.373ZM31.2354 30.6602C31.2354 27.9121 30.6885 25.875 29.5947 24.5488C28.5146 23.2227 26.8672 22.5596 24.6523 22.5596H22.2939V39.3555H24.0986C26.5596 39.3555 28.3643 38.6445 29.5127 37.2227C30.6611 35.7871 31.2354 33.5996 31.2354 30.6602Z" fill="#F0F0F0"/>
<path d="M37.2773 31.1768C37.2773 34.2321 36.7083 36.7865 35.5703 38.8398C34.4323 40.8809 32.7809 42.4209 30.6162 43.46C28.4515 44.4867 25.8415 45 22.7861 45H15.2529V17.873H23.6025C26.4105 17.873 28.835 18.3802 30.876 19.3945C32.917 20.3965 34.4941 21.887 35.6074 23.8662C36.7207 25.833 37.2773 28.2699 37.2773 31.1768ZM32.6387 31.3066C32.6387 29.0801 32.2861 27.2493 31.5811 25.8145C30.8883 24.3796 29.8617 23.3158 28.501 22.623C27.1527 21.918 25.4889 21.5654 23.5098 21.5654H19.7061V41.2705H22.8604C26.1383 41.2705 28.5876 40.4355 30.208 38.7656C31.8285 37.0957 32.6387 34.6094 32.6387 31.3066Z" fill="black"/>
<rect y="41" width="16" height="4" fill="black"/>
<rect width="22" height="5.28" transform="matrix(-1 0 0 1 21 36)" fill="#F0F0F0"/>
</g>
</svg>
