<svg preserveAspectRatio="none" width="100%" height="100%" overflow="visible" style="display: block;" viewBox="0 0 121 121" fill="none" xmlns="http://www.w3.org/2000/svg">
<g id="Frame 10">
<circle id="Ellipse 1" cx="60.5" cy="60.5" r="60.5" fill="var(--fill-0, #E8E8E8)"/>
<circle id="Ellipse 2" cx="60.5" cy="60.5" r="59.5" fill="var(--fill-0, #F5F5F5)"/>
<g id="arrow">
<path id="Vector" fill-rule="evenodd" clip-rule="evenodd" d="M59.761 27.5141C59.9236 27.3512 60.1167 27.2219 60.3293 27.1336C60.5419 27.0454 60.7698 27 61 27C61.2302 27 61.4581 27.0454 61.6707 27.1336C61.8833 27.2219 62.0765 27.3512 62.239 27.5141L83.239 48.5141C83.5676 48.8427 83.7522 49.2884 83.7522 49.7531C83.7522 50.2178 83.5676 50.6635 83.239 50.9921C82.9104 51.3207 82.4647 51.5053 82 51.5053C81.5353 51.5053 81.0896 51.3207 80.761 50.9921L61 31.2276L41.239 50.9921C40.9104 51.3207 40.4647 51.5053 40 51.5053C39.5353 51.5053 39.0896 51.3207 38.761 50.9921C38.4324 50.6635 38.2478 50.2178 38.2478 49.7531C38.2478 49.2884 38.4324 48.8427 38.761 48.5141L59.761 27.5141V27.5141Z" fill="var(--fill-0, #DCDCDC)"/>
<path id="Vector_2" fill-rule="evenodd" clip-rule="evenodd" d="M59.761 26.5141C59.9236 26.3512 60.1167 26.2219 60.3293 26.1336C60.5419 26.0454 60.7698 26 61 26C61.2302 26 61.4581 26.0454 61.6707 26.1336C61.8833 26.2219 62.0765 26.3512 62.239 26.5141L83.239 47.5141C83.5676 47.8427 83.7522 48.2884 83.7522 48.7531C83.7522 49.2178 83.5676 49.6635 83.239 49.9921C82.9104 50.3207 82.4647 50.5053 82 50.5053C81.5353 50.5053 81.0896 50.3207 80.761 49.9921L61 30.2276L41.239 49.9921C40.9104 50.3207 40.4647 50.5053 40 50.5053C39.5353 50.5053 39.0896 50.3207 38.761 49.9921C38.4324 49.6635 38.2478 49.2178 38.2478 48.7531C38.2478 48.2884 38.4324 47.8427 38.761 47.5141L59.761 26.5141V26.5141Z" fill="var(--fill-0, white)"/>
</g>
</g>
</svg>
